<svg xmlns="http://www.w3.org/2000/svg" viewBox="0 0 458.7 648.7">
    <style>
        .st0{fill:url(#XMLID_4_)}.st1{fill:url(#XMLID_6_)}.st2{opacity:.54;fill:url(#XMLID_8_)}.st3{fill:url(#XMLID_9_)}.st4{fill:url(#XMLID_10_)}.st5{fill:url(#XMLID_11_)}.st6{fill:url(#XMLID_36_)}.st7{fill:url(#XMLID_37_)}.st8{opacity:.54;fill:url(#XMLID_38_)}.st9{fill:url(#XMLID_39_)}.st10{fill:#0a0a0a}.st11{font-family:&apos;MyriadPro-Regular&apos;}.st12{font-size:24px}#middle{transition:1s}#middle:active{transform:translateY(280px)}
    </style>
    <g id="back_1_">
        <radialGradient id="XMLID_4_" cx="146.752" cy="572.513" r="310.503" gradientTransform="matrix(1 0 0 .4251 0 329.141)" gradientUnits="userSpaceOnUse">
            <stop offset="0" stop-color="#fff"/>
            <stop offset=".413" stop-color="#b6b6b7"/>
            <stop offset="1" stop-color="#525355"/>
        </radialGradient>
        <ellipse id="XMLID_109_" class="st0" cx="189.6" cy="576.3" rx="189.6" ry="54.2"/>
        <linearGradient id="XMLID_6_" gradientUnits="userSpaceOnUse" x1="132" y1="318.282" x2="511.17" y2="318.282" gradientTransform="rotate(180 255.585 290.896)">
            <stop offset="0" stop-color="#525355"/>
            <stop offset=".186" stop-color="#a1a2a3"/>
            <stop offset=".357" stop-color="#e5e5e5"/>
            <stop offset=".437" stop-color="#fff"/>
            <stop offset=".67" stop-color="#b6b6b7"/>
            <stop offset="1" stop-color="#525355"/>
        </linearGradient>
        <path id="XMLID_14_" class="st1" d="M.1 298.4v-.3c0-.3.1-.6.1-1 0-.1.1-.3.1-.4.1-.3.1-.6.2-.9 0-.2.1-.3.1-.5l.3-.9c0-.1.1-.3.1-.4.1-.4.3-.8.5-1.2.1-.2.2-.3.2-.5.1-.2.2-.5.4-.7.1-.2.3-.5.4-.7.1-.1.1-.2.2-.3 0-.1.1-.1.1-.2.2-.3.3-.5.5-.8.1-.1.2-.3.3-.4.2-.3.4-.5.6-.8.1-.2.2-.3.3-.5.2-.3.4-.5.6-.8.1-.1.2-.3.4-.4.2-.3.5-.5.7-.8.1-.1.2-.3.4-.4.3-.3.5-.6.8-.8 0 0 .1 0 .1-.1.7-.7 1.5-1.4 2.3-2.1.1 0 .1-.1.2-.1.3-.3.6-.5 1-.8.2-.1.3-.3.5-.4.3-.2.6-.5 1-.7.2-.1.4-.3.6-.4.3-.2.6-.5 1-.7.2-.2.4-.3.6-.5.3-.2.7-.5 1-.7.2-.2.5-.3.7-.4.4-.2.7-.5 1.1-.7.2-.1.5-.3.7-.4.4-.2.8-.5 1.2-.7.2-.1.5-.3.7-.4.4-.2.8-.5 1.3-.7.2-.1.4-.2.5-.3 1.7-.9 3.4-1.8 5.3-2.7.1 0 .2-.1.3-.1.5-.3 1.1-.5 1.6-.7l.6-.3c.5-.2 1.1-.5 1.6-.7.3-.1.5-.2.8-.3.5-.2 1.1-.5 1.6-.7.3-.1.5-.2.8-.3.6-.2 1.1-.5 1.7-.7.3-.1.5-.2.8-.3.6-.2 1.2-.5 1.8-.7.2-.1.5-.2.7-.3.6-.2 1.3-.5 1.9-.7.2-.1.3-.1.5-.2 4.1-1.5 8.4-2.8 12.9-4.2.1 0 .2-.1.3-.1.8-.2 1.7-.5 2.5-.7.1 0 .3-.1.4-.1.8-.2 1.7-.5 2.6-.7.2 0 .3-.1.5-.1.9-.2 1.8-.5 2.6-.7.1 0 .2-.1.4-.1.9-.2 1.9-.5 2.8-.7h.1c33.1-8.1 76-12.9 122.9-12.9 61.5 0 116.2 8.4 150.8 21.4.1 0 .1 0 .2.1.7.3 1.5.6 2.2.8.1 0 .2.1.4.1.7.3 1.4.5 2 .8.1.1.2.1.4.2.7.3 1.3.6 2 .8.1 0 .2.1.3.1.7.3 1.3.6 2 .9h.1c3.5 1.6 6.8 3.3 9.7 5 .1.1.2.1.3.2.5.3 1 .6 1.4.9.1.1.3.2.4.3.4.3.9.6 1.3.8.1.1.3.2.4.3.4.3.8.6 1.2.8.1.1.3.2.4.3.4.3.8.6 1.2.8.1.1.2.2.4.3l1.2.9.2.2c1.7 1.4 3.3 2.8 4.6 4.2l.2.2c.3.3.5.6.8.9.1.1.2.2.3.4.2.3.4.6.7.8.1.1.2.3.3.4.2.3.4.5.6.8.1.1.2.3.3.4.2.3.4.5.5.8 0 .1.1.1.1.2.1.1.1.2.2.3.1.2.3.5.4.7.1.2.2.5.4.7.1.2.2.3.2.5.2.4.3.8.5 1.2.1.1.1.3.1.4l.3.9c0 .2.1.3.1.5.1.3.1.6.2.9 0 .1.1.3.1.4.1.3.1.6.1 1v.3c0 .4.1.9.1 1.3v-18.2c0-29.9-84.9-54.2-189.6-54.2C84.9 227.3 0 251.6 0 281.5v18.2c0-.5 0-.9.1-1.3z"/>
        <linearGradient id="XMLID_8_" gradientUnits="userSpaceOnUse" x1="-19.165" y1="410.517" x2="360.002" y2="410.517">
            <stop offset="0" stop-color="#abc6d4"/>
            <stop offset=".064" stop-color="#bfd3de"/>
            <stop offset=".175" stop-color="#dbe6ec"/>
            <stop offset=".286" stop-color="#eff4f7"/>
            <stop offset=".398" stop-color="#fbfcfd"/>
            <stop offset=".508" stop-color="#fff"/>
            <stop offset=".603" stop-color="#fafbfc"/>
            <stop offset=".721" stop-color="#eaf1f4"/>
            <stop offset=".852" stop-color="#d1e0e7"/>
            <stop offset=".991" stop-color="#aec8d5"/>
            <stop offset="1" stop-color="#abc6d4"/>
        </linearGradient>
        <path id="XMLID_21_" class="st2" d="M376.5 289.8c-15.1-25.6-93.1-45.1-186.9-45.1-93.9 0-171.8 19.5-186.9 45.1 2 3.4 5.1 6.7 9.3 9.9H0v276.8c.1-29.9 84.9-54.1 189.6-54.1s189.5 24.2 189.6 54.1V299.6h-11.9c4.1-3.1 7.2-6.4 9.2-9.8z"/>
        <linearGradient id="XMLID_9_" gradientUnits="userSpaceOnUse" y1="612.516" x2="379.17" y2="612.516">
            <stop offset="0" stop-color="#525355"/>
            <stop offset=".186" stop-color="#a1a2a3"/>
            <stop offset=".357" stop-color="#e5e5e5"/>
            <stop offset=".437" stop-color="#fff"/>
            <stop offset=".67" stop-color="#b6b6b7"/>
            <stop offset="1" stop-color="#525355"/>
        </linearGradient>
        <path id="XMLID_121_" class="st3" d="M379.2 576.3v18.2c0 29.9-84.9 54.2-189.6 54.2C84.9 648.7 0 624.4 0 594.5v-18.2c0 3.1.9 6.1 2.7 9.1 15.1 25.6 93 45.1 186.9 45.1s171.8-19.5 186.9-45.1c1.8-2.9 2.7-6 2.7-9.1z"/>
    </g>
    <g id="middle">
        <radialGradient id="XMLID_10_" cx="166.085" cy="286.787" r="310.503" gradientTransform="matrix(1 0 0 .3766 0 178.785)" gradientUnits="userSpaceOnUse">
            <stop offset="0" stop-color="#fff"/>
            <stop offset=".413" stop-color="#b6b6b7"/>
            <stop offset="1" stop-color="#525355"/>
        </radialGradient>
        <ellipse id="XMLID_119_" class="st4" cx="189.6" cy="280.6" rx="189.6" ry="54.2"/>
        <linearGradient id="XMLID_11_" gradientUnits="userSpaceOnUse" y1="316.791" x2="379.17" y2="316.791">
            <stop offset="0" stop-color="#525355"/>
            <stop offset=".186" stop-color="#a1a2a3"/>
            <stop offset=".357" stop-color="#e5e5e5"/>
            <stop offset=".437" stop-color="#fff"/>
            <stop offset=".67" stop-color="#b6b6b7"/>
            <stop offset="1" stop-color="#525355"/>
        </linearGradient>
        <path id="XMLID_117_" class="st5" d="M379.2 280.6v18.2c0 29.9-84.9 54.2-189.6 54.2C84.9 353 0 328.7 0 298.8v-18.2c0 3.1.9 6.1 2.7 9.1 15.1 25.6 93 45.1 186.9 45.1s171.8-19.5 186.9-45.1c1.8-2.9 2.7-6 2.7-9.1z"/>
        <linearGradient id="XMLID_36_" gradientUnits="userSpaceOnUse" x1="152.413" y1="151.001" x2="226.757" y2="151.001">
            <stop offset="0" stop-color="#a3a5a8"/>
            <stop offset=".064" stop-color="#c0c1c4"/>
            <stop offset=".141" stop-color="#dcdcdd"/>
            <stop offset=".219" stop-color="#eff0f0"/>
            <stop offset=".298" stop-color="#fbfbfb"/>
            <stop offset=".378" stop-color="#fff"/>
            <stop offset=".457" stop-color="#f9f9f9"/>
            <stop offset=".567" stop-color="#e7e7e8"/>
            <stop offset=".694" stop-color="#cacbcb"/>
            <stop offset=".834" stop-color="#a2a3a4"/>
            <stop offset=".983" stop-color="#6e7072"/>
            <stop offset="1" stop-color="#686a6c"/>
        </linearGradient>
        <path id="XMLID_113_" class="st6" d="M152.4 10.6v270c0 5.9 16.6 10.8 37.2 10.8 20.5 0 37.2-4.8 37.2-10.8v-270h-74.4z"/>
        <radialGradient id="XMLID_37_" cx="176.618" cy="8.113" r="106.628" gradientTransform="matrix(1 .00548 -.00236 .4313 .022 3.646)" gradientUnits="userSpaceOnUse">
            <stop offset="0" stop-color="#fff"/>
            <stop offset=".413" stop-color="#b6b6b7"/>
            <stop offset="1" stop-color="#525355"/>
        </radialGradient>
        <ellipse id="XMLID_81_" class="st7" cx="189.6" cy="10.6" rx="37.2" ry="10.6"/>
    </g>
    <g id="front">
        <linearGradient id="XMLID_38_" gradientUnits="userSpaceOnUse" x1="-19.165" y1="465.097" x2="360.002" y2="465.097">
            <stop offset="0" stop-color="#abc6d4"/>
            <stop offset=".064" stop-color="#bfd3de"/>
            <stop offset=".175" stop-color="#dbe6ec"/>
            <stop offset=".286" stop-color="#eff4f7"/>
            <stop offset=".398" stop-color="#fbfcfd"/>
            <stop offset=".508" stop-color="#fff"/>
            <stop offset=".603" stop-color="#fafbfc"/>
            <stop offset=".721" stop-color="#eaf1f4"/>
            <stop offset=".852" stop-color="#d1e0e7"/>
            <stop offset=".991" stop-color="#aec8d5"/>
            <stop offset="1" stop-color="#abc6d4"/>
        </linearGradient>
        <path id="XMLID_114_" class="st8" d="M189.6 334.9c-81.4 0-150.7-14.6-177.6-35.2H0v276.7c0 29.9 84.9 54.2 189.6 54.2s189.6-24.3 189.6-54.2V299.7h-11.9c-27 20.5-96.4 35.2-177.7 35.2z"/>
        <linearGradient id="XMLID_39_" gradientUnits="userSpaceOnUse" y1="316.896" x2="379.17" y2="316.896">
            <stop offset="0" stop-color="#525355"/>
            <stop offset=".186" stop-color="#a1a2a3"/>
            <stop offset=".357" stop-color="#e5e5e5"/>
            <stop offset=".437" stop-color="#fff"/>
            <stop offset=".67" stop-color="#b6b6b7"/>
            <stop offset="1" stop-color="#525355"/>
        </linearGradient>
        <path id="XMLID_177_" class="st9" d="M379.1 282v.3c0 .3-.1.6-.1 1 0 .1-.1.3-.1.4-.1.3-.1.6-.2.9 0 .2-.1.3-.1.5l-.3.9c0 .1-.1.3-.1.4-.1.4-.3.8-.5 1.2-.1.2-.2.3-.2.5-.1.2-.2.5-.4.7-.1.2-.3.5-.4.7-.1.1-.1.2-.2.3 0 .1-.1.1-.1.2-.2.3-.3.5-.5.8-.1.1-.2.3-.3.4-.2.3-.4.5-.6.8-.1.2-.2.3-.3.5-.2.3-.4.5-.6.8-.1.1-.2.3-.4.4-.2.3-.5.5-.7.8-.1.1-.2.3-.4.4-.3.3-.5.6-.8.8 0 0-.1 0-.1.1-.7.7-1.5 1.4-2.3 2.1-.1 0-.1.1-.2.1-.3.3-.6.5-1 .8-.2.1-.3.3-.5.4-.3.2-.6.5-1 .7-.2.1-.4.3-.6.4-.3.2-.6.5-1 .7-.2.2-.4.3-.6.5-.3.2-.7.5-1 .7-.2.2-.5.3-.7.4-.4.2-.7.5-1.1.7-.2.1-.5.3-.7.4-.4.2-.8.5-1.2.7-.2.1-.5.3-.7.4-.4.2-.8.5-1.3.7-.2.1-.4.2-.5.3-1.7.9-3.4 1.8-5.3 2.7-.1 0-.2.1-.3.1-.5.3-1.1.5-1.6.7l-.6.3c-.5.2-1.1.5-1.6.7-.3.1-.5.2-.8.3-.5.2-1.1.5-1.6.7-.3.1-.5.2-.8.3-.6.2-1.1.5-1.7.7-.3.1-.5.2-.8.3-.6.2-1.2.5-1.8.7-.2.1-.5.2-.7.3-.6.2-1.3.5-1.9.7-.2.1-.3.1-.5.2-4.1 1.5-8.4 2.8-12.9 4.2-.1 0-.2.1-.3.1-.8.2-1.7.5-2.5.7-.1 0-.3.1-.4.1-.8.2-1.7.5-2.6.7-.2 0-.3.1-.5.1-.9.2-1.8.5-2.6.7-.1 0-.2.1-.4.1-.9.2-1.9.5-2.8.7h-.1c-33.1 8.1-76 12.9-122.9 12.9-61.5 0-116.2-8.4-150.8-21.4-.1 0-.1 0-.2-.1-.7-.3-1.5-.6-2.2-.8-.1 0-.2-.1-.4-.1-.7-.3-1.4-.5-2-.8-.1-.1-.2-.1-.4-.2-.7-.3-1.3-.6-2-.8-.1 0-.2-.1-.3-.1-.7-.3-1.3-.6-2-.9h-.1c-3.5-1.6-6.8-3.3-9.7-5-.1-.1-.2-.1-.3-.2-.5-.3-1-.6-1.4-.9-.1-.1-.3-.2-.4-.3-.4-.3-.9-.6-1.3-.8-.1-.1-.3-.2-.4-.3-.4-.3-.8-.6-1.2-.8-.1-.1-.3-.2-.4-.3-.4-.3-.8-.6-1.2-.8-.1-.1-.2-.2-.4-.3L11 299l-.2-.2c-1.7-1.4-3.3-2.8-4.6-4.2l-.2-.2c-.3-.3-.5-.6-.8-.9-.1-.1-.2-.2-.3-.4-.2-.3-.4-.6-.7-.8-.1-.1-.2-.3-.3-.4-.2-.3-.4-.5-.6-.8-.1-.1-.2-.3-.3-.4-.2-.3-.4-.5-.5-.8 0-.1-.1-.1-.1-.2-.1-.1-.1-.2-.2-.3-.1-.2-.3-.5-.4-.7-.1-.2-.2-.5-.4-.7-.1-.2-.2-.3-.2-.5-.2-.4-.3-.8-.5-1.2-.1-.1-.1-.3-.1-.4l-.3-.9c0-.2-.1-.3-.1-.5-.1-.3-.1-.6-.2-.9 0-.1-.1-.3-.1-.4-.1-.3-.1-.6-.1-1v-.3c0-.4-.1-.9-.1-1.3v18.2c0 29.9 84.9 54.2 189.6 54.2 104.7 0 189.6-24.3 189.6-54.2v-18.2c.3.6.2 1 .2 1.4z"/>
        <g id="XMLID_372_">
            <g id="XMLID_371_">
                <path id="XMLID_181_" class="st10" d="M346.7 551.4c19.2-8.3 24.5-14.7 24.5-14.7V534s-5.3 6.5-24.5 14.7v2.7z"/>
                <g id="XMLID_270_">
                    <path id="XMLID_273_" class="st10" d="M357 535.3v.7c10.9-5.8 14.2-9.8 14.2-9.8v-.7s-3.4 4-14.2 9.8z"/>
                </g>
                <g id="XMLID_274_">
                    <path id="XMLID_275_" class="st10" d="M357 526.8v.7c10.9-5.8 14.2-9.8 14.2-9.8v-.7s-3.4 4-14.2 9.8z"/>
                </g>
                <g id="XMLID_276_">
                    <path id="XMLID_277_" class="st10" d="M357 518.3v.7c10.9-5.8 14.2-9.8 14.2-9.8v-.7s-3.4 4-14.2 9.8z"/>
                </g>
                <g id="XMLID_278_">
                    <path id="XMLID_279_" class="st10" d="M357 509.8v.7c10.9-5.8 14.2-9.8 14.2-9.8v-.7s-3.4 4-14.2 9.8z"/>
                </g>
                <g id="XMLID_280_">
                    <path id="XMLID_281_" class="st10" d="M357 501.3v.7c10.9-5.8 14.2-9.8 14.2-9.8v-.7s-3.4 4-14.2 9.8z"/>
                </g>
                <g id="XMLID_322_">
                    <path id="XMLID_323_" class="st10" d="M357 589.8v.7c10.9-5.8 14.2-9.8 14.2-9.8v-.7s-3.4 4.1-14.2 9.8z"/>
                </g>
                <g id="XMLID_320_">
                    <path id="XMLID_321_" class="st10" d="M357 581.3v.7c10.9-5.8 14.2-9.8 14.2-9.8v-.7s-3.4 4.1-14.2 9.8z"/>
                </g>
                <g id="XMLID_318_">
                    <path id="XMLID_319_" class="st10" d="M357 572.8v.7c10.9-5.8 14.2-9.8 14.2-9.8v-.7s-3.4 4.1-14.2 9.8z"/>
                </g>
                <g id="XMLID_316_">
                    <path id="XMLID_317_" class="st10" d="M357 564.3v.7c10.9-5.8 14.2-9.8 14.2-9.8v-.7s-3.4 4.1-14.2 9.8z"/>
                </g>
                <g id="XMLID_314_">
                    <path id="XMLID_315_" class="st10" d="M357 555.8v.7c10.9-5.8 14.2-9.8 14.2-9.8v-.7s-3.4 4.1-14.2 9.8z"/>
                </g>
                <g id="XMLID_334_">
                    <path id="XMLID_335_" class="st10" d="M357 371.3v.7c10.9-5.8 14.2-9.8 14.2-9.8v-.7s-3.4 4-14.2 9.8z"/>
                </g>
                <g id="XMLID_332_">
                    <path id="XMLID_333_" class="st10" d="M357 362.8v.7c10.9-5.8 14.2-9.8 14.2-9.8v-.7s-3.4 4-14.2 9.8z"/>
                </g>
                <g id="XMLID_330_">
                    <path id="XMLID_331_" class="st10" d="M357 354.3v.7c10.9-5.8 14.2-9.8 14.2-9.8v-.7s-3.4 4-14.2 9.8z"/>
                </g>
                <g id="XMLID_328_">
                    <path id="XMLID_329_" class="st10" d="M357 345.8v.7c10.9-5.8 14.2-9.8 14.2-9.8v-.7s-3.4 4-14.2 9.8z"/>
                </g>
                <g id="XMLID_326_">
                    <path id="XMLID_327_" class="st10" d="M357 337.3v.7c10.9-5.8 14.2-9.8 14.2-9.8v-.7s-3.4 4-14.2 9.8z"/>
                </g>
                <g id="XMLID_290_">
                    <path id="XMLID_291_" class="st10" d="M357 480.6v.7c10.9-5.8 14.2-9.8 14.2-9.8v-.7s-3.4 4.1-14.2 9.8z"/>
                </g>
                <g id="XMLID_288_">
                    <path id="XMLID_289_" class="st10" d="M357 472.1v.7c10.9-5.8 14.2-9.8 14.2-9.8v-.7s-3.4 4.1-14.2 9.8z"/>
                </g>
                <g id="XMLID_286_">
                    <path id="XMLID_287_" class="st10" d="M357 463.6v.7c10.9-5.8 14.2-9.8 14.2-9.8v-.7s-3.4 4.1-14.2 9.8z"/>
                </g>
                <g id="XMLID_284_">
                    <path id="XMLID_285_" class="st10" d="M357 455.1v.7c10.9-5.8 14.2-9.8 14.2-9.8v-.7s-3.4 4.1-14.2 9.8z"/>
                </g>
                <g id="XMLID_282_">
                    <path id="XMLID_283_" class="st10" d="M357 446.6v.7c10.9-5.8 14.2-9.8 14.2-9.8v-.7s-3.4 4.1-14.2 9.8z"/>
                </g>
                <g id="XMLID_302_">
                    <path id="XMLID_303_" class="st10" d="M357 425.9v.7c10.9-5.8 14.2-9.8 14.2-9.8v-.8s-3.4 4.1-14.2 9.9z"/>
                </g>
                <g id="XMLID_300_">
                    <path id="XMLID_301_" class="st10" d="M357 417.4v.7c10.9-5.8 14.2-9.8 14.2-9.8v-.7c0-.1-3.4 4-14.2 9.8z"/>
                </g>
                <g id="XMLID_298_">
                    <path id="XMLID_299_" class="st10" d="M357 408.9v.7c10.9-5.8 14.2-9.8 14.2-9.8v-.8s-3.4 4.1-14.2 9.9z"/>
                </g>
                <g id="XMLID_296_">
                    <path id="XMLID_297_" class="st10" d="M357 400.4v.7c10.9-5.8 14.2-9.8 14.2-9.8v-.7c0-.1-3.4 4-14.2 9.8z"/>
                </g>
                <g id="XMLID_294_">
                    <path id="XMLID_295_" class="st10" d="M357 391.9v.7c10.9-5.8 14.2-9.8 14.2-9.8v-.8s-3.4 4.1-14.2 9.9z"/>
                </g>
                <path id="XMLID_182_" class="st10" d="M346.7 496.8c19.2-8.3 24.5-14.7 24.5-14.7v-2.7s-5.3 6.5-24.5 14.7v2.7z"/>
                <path id="XMLID_183_" class="st10" d="M346.7 442.1c19.2-8.3 24.5-14.7 24.5-14.7v-2.7s-5.3 6.5-24.5 14.7v2.7z"/>
                <path id="XMLID_184_" class="st10" d="M346.7 387.5c19.2-8.3 24.5-14.7 24.5-14.7V370s-5.3 6.5-24.5 14.7v2.8z"/>
            </g>
            <text id="XMLID_167_" transform="translate(391.775 542.715)" class="st10 st11 st12">
                100 ml
            </text>
            <text id="XMLID_213_" transform="translate(391.775 488.064)" class="st10 st11 st12">
                200 ml
            </text>
            <text id="XMLID_214_" transform="translate(391.775 433.413)" class="st10 st11 st12">
                300 ml
            </text>
            <text id="XMLID_215_" transform="translate(391.775 378.763)" class="st10 st11 st12">
                400 ml
            </text>
        </g>
    </g>
</svg>
